<?xml version="1.0" encoding="utf-8"?>
<!-- Generator: Adobe Illustrator 27.0.0, SVG Export Plug-In . SVG Version: 6.00 Build 0)  -->
<svg version="1.1" xmlns="http://www.w3.org/2000/svg" xmlns:xlink="http://www.w3.org/1999/xlink" x="0px" y="0px"
	 viewBox="0 0 110.6 110.6" style="enable-background:new 0 0 110.6 110.6;" xml:space="preserve">
<style type="text/css">
	.st0{fill:#FFFFFF;}
	.st1{fill:url(#SVGID_1_);}
	.st2{fill:none;stroke:#FFFFFF;stroke-width:2;stroke-miterlimit:10;}
	.st3{fill:none;stroke:#FFFFFF;stroke-width:0.75;stroke-miterlimit:10;}
	.st4{fill:url(#SVGID_00000140693024576438470940000000621202362526744462_);}
	.st5{fill:#C2AD7E;}
	.st6{fill:#838383;}
	.st7{fill:#C5BAAF;}
	.st8{fill:#B19571;}
	.st9{fill:#465E5A;}
	.st10{fill:none;stroke:#FFFFFF;stroke-miterlimit:10;}
	.st11{fill:#001A52;}
	.st12{opacity:0.4;}
	.st13{fill:#FBFBFB;}
	.st14{fill:#F7F7F7;}
	.st15{fill:#F3F3F3;}
	.st16{fill:#EFEFEF;}
	.st17{fill:#EBEBEB;}
	.st18{fill:#E7E7E7;}
	.st19{fill:#E3E3E3;}
	.st20{fill:#DFDFDF;}
	.st21{fill:#DBDBDB;}
	.st22{fill:#D7D7D7;}
	.st23{fill:#D3D3D3;}
	.st24{fill:#CFCFCF;}
	.st25{fill:#CBCBCB;}
	.st26{fill:#C7C7C7;}
	.st27{fill:#C3C3C3;}
	.st28{fill:#BEBEBE;}
	.st29{fill:#BABABA;}
	.st30{fill:#B6B6B6;}
	.st31{fill:#B2B2B2;}
	.st32{fill:#AEAEAE;}
	.st33{fill:#AAAAAA;}
	.st34{fill:#A6A6A6;}
	.st35{fill:#A2A2A2;}
	.st36{fill:#9E9E9E;}
	.st37{fill:#9A9A9A;}
	.st38{fill:#969696;}
	.st39{fill:#929292;}
	.st40{fill:#8E8E8E;}
	.st41{fill:#8A8A8A;}
	.st42{fill:#868686;}
	.st43{fill:#828282;}
	.st44{clip-path:url(#SVGID_00000108278627195470831430000000732546988861279622_);}
	.st45{fill:url(#SVGID_00000157309601246189090810000014332715173508546690_);}
	.st46{filter:url(#Adobe_OpacityMaskFilter);}
	.st47{opacity:0.3;mask:url(#SVGID_00000162327715232817141870000013429331817075429292_);fill:#FFFFFF;}
	.st48{fill:url(#SVGID_00000024706993385716037260000016749290273618572975_);}
	.st49{fill:none;stroke:#3B3861;stroke-width:0.75;stroke-linecap:round;stroke-linejoin:round;stroke-miterlimit:10;}
	.st50{fill:url(#SVGID_00000176752062178326433660000017017863313249484702_);}
	.st51{fill:url(#SVGID_00000132054191606409106240000006898525008126809518_);}
	.st52{fill:url(#SVGID_00000021088519482951276980000006969264800816228795_);}
	.st53{fill:url(#SVGID_00000030452433544336301560000012616863069099617692_);}
	.st54{opacity:0.26;}
	.st55{fill:url(#SVGID_00000024720552085195688710000013506597931394347150_);}
	.st56{fill:url(#SVGID_00000028303549932631545120000014660474804119562369_);}
	.st57{fill:url(#SVGID_00000156554108913661705100000014651823371271328179_);}
	.st58{fill:url(#SVGID_00000019673511183746722710000013867218450677710763_);}
	.st59{fill:url(#SVGID_00000138563231970680004860000000512145973538588842_);}
	.st60{fill:url(#SVGID_00000060713473464818038500000012732111737280869809_);}
	.st61{fill:url(#SVGID_00000007420330382142524960000016117536213306945926_);}
	.st62{fill:url(#SVGID_00000134947928643656217440000017084516512443694265_);}
	.st63{fill:url(#SVGID_00000024711694172540430650000006965160508957298082_);}
	.st64{fill:url(#SVGID_00000183233290941683499980000015324900021243588245_);}
	.st65{fill:none;stroke:#3B3861;stroke-width:0.75;stroke-miterlimit:10;}
	.st66{fill:url(#SVGID_00000019673376883815363490000012209695615870245814_);}
	.st67{fill:url(#SVGID_00000028318149762845735200000003427002802450636449_);}
	.st68{fill:url(#SVGID_00000145775215443652502780000007000979890112064941_);}
	.st69{fill:url(#SVGID_00000041978347442821399680000008103642560775935620_);}
	.st70{opacity:0.56;}
	.st71{fill:#3B3861;}
	.st72{fill:none;stroke:#FFFFFF;stroke-width:0.75;stroke-linecap:round;stroke-linejoin:round;stroke-miterlimit:10;}
	.st73{fill:url(#SVGID_00000045594215718542915880000009815229404702156731_);}
	.st74{opacity:0.6;}
	.st75{fill:none;stroke:#FFFFFF;stroke-linecap:round;stroke-linejoin:round;stroke-miterlimit:10;}
	.st76{fill:url(#SVGID_00000010305136150131811050000011691489858849793674_);}
	.st77{fill:url(#SVGID_00000143590737200921829470000003335585612744457908_);}
	.st78{fill:none;stroke:#8686BE;stroke-width:0.5385;stroke-linecap:round;stroke-linejoin:round;stroke-miterlimit:10;}
	.st79{opacity:0.5;fill:none;stroke:#BB9DDD;stroke-width:2;stroke-linecap:round;stroke-linejoin:round;stroke-miterlimit:10;}
	.st80{fill:url(#SVGID_00000056427356089185172540000000924974171769607811_);}
	.st81{fill:url(#SVGID_00000005987699054995225310000003230629824253276548_);}
	.st82{fill:url(#SVGID_00000098208682836437641820000010066580576411640754_);}
	.st83{fill:url(#SVGID_00000000917467777676158200000002602967412396549545_);}
	.st84{fill:url(#SVGID_00000155844767629796785080000012406381024690531739_);}
	.st85{fill:url(#SVGID_00000025426193071341942070000002697582765949583762_);}
	.st86{fill:url(#SVGID_00000105416122155510640730000015483820156794171275_);}
	.st87{fill:url(#SVGID_00000047023318795649661570000005587676787146002575_);}
	.st88{fill:#39B44A;}
	.st89{fill:url(#SVGID_00000052098701337043983930000010213083776230700704_);}
	.st90{fill:url(#SVGID_00000116943806642827970330000010882654743221759885_);}
	.st91{fill:url(#SVGID_00000001634821603071798090000001529412879357776541_);}
	.st92{fill:url(#SVGID_00000168113794137510408360000016803903677469824649_);}
	.st93{fill:url(#SVGID_00000106828919768668301840000002411830795282219932_);}
	.st94{fill:url(#SVGID_00000175280113995263083560000004330606396111891133_);}
	.st95{fill:url(#SVGID_00000134226545990982404210000004922990187413209019_);}
	.st96{fill:url(#SVGID_00000124126853376292422700000000386769359640942256_);}
	.st97{fill:url(#SVGID_00000178903615552833331810000006179769889563865785_);}
	.st98{fill:url(#SVGID_00000176754885795500354260000015059348009696027284_);}
	.st99{fill:url(#SVGID_00000059303881361741912680000007209879165445402803_);}
	.st100{fill:url(#SVGID_00000007399742886810266320000012677194300426432143_);}
	.st101{fill:url(#SVGID_00000053545374532992989260000015392644862830377653_);}
	.st102{fill:url(#SVGID_00000002358443411243453450000006519546595567649929_);}
	.st103{fill:url(#SVGID_00000026854184575484430000000002231777340487716763_);}
	.st104{fill:url(#SVGID_00000082365828161148668310000007403296989088824203_);}
	.st105{fill:url(#SVGID_00000152962003820003241360000006664133427513062573_);}
	.st106{fill:url(#SVGID_00000152259606147680039090000008243223632870598806_);}
	.st107{display:none;}
	.st108{display:inline;fill:none;stroke:#FFFFFF;stroke-miterlimit:10;}
</style>
<g id="Layer_1">
	<g>
		
			<image style="overflow:visible;" width="1152" height="1152" xlink:href="AC7DDCB660BECABA.png"  transform="matrix(1 0 0 1 -36 -1136)">
		</image>
	</g>
	<g>
		<circle class="st7" cx="55.3" cy="55.3" r="52.7"/>
		<g>
			<g>
				<g>
					<path class="st0" d="M79,51.2c0.7-0.1,1.2,0,1.7,0.2c0.5,0.2,0.8,0.6,0.8,1.4h0.1v-3.6h-0.1c0,0.6-0.2,1.1-0.5,1.3
						c-0.3,0.3-0.6,0.4-1.1,0.5c-0.4,0.1-0.9,0.1-1.4,0.1c-0.1,0-0.2,0-0.3,0H77v0.1h1.3C78.5,51.2,78.8,51.2,79,51.2z"/>
					<path class="st0" d="M77,43.9h3.1c0.9,0,1.6,0.1,2.1,0.2c0.6,0.1,1,0.4,1.3,0.7c0.3,0.4,0.5,0.9,0.5,1.7h0.1l0-2.7H77V43.9z"/>
					<path class="st0" d="M85.1,55.9c-0.4,1.2-1,2-1.9,2.5c-0.8,0.5-1.7,0.8-2.8,0.8l-3.4,0v0.1l7.1,0l1.1-3.4H85.1z"/>
				</g>
				<g>
					<path class="st0" d="M67.5,43.7v0.1h0c0.1,0,0.2,0,0.5,0c0.2,0,0.4,0.1,0.7,0.2c0.2,0.1,0.3,0.3,0.3,0.5v9.7
						c0,1.6-0.4,2.8-1.3,3.7c-0.1,0.2-0.3,0.3-0.5,0.4v0.1c0.5-0.3,0.9-0.8,1.2-1.3c0.4-0.8,0.7-1.7,0.7-2.9v-9.7
						c0-0.2,0.1-0.4,0.3-0.5c0.2-0.1,0.4-0.2,0.7-0.2c0.2,0,0.4,0,0.5,0h0v-0.1H67.5z"/>
					<path class="st0" d="M62,58.7c-0.5-0.4-0.9-1-1.1-1.7c-0.2-0.8-0.4-1.7-0.4-2.8v-9.6c0-0.2,0.1-0.4,0.3-0.5
						c0.2-0.1,0.4-0.2,0.6-0.2c0.2,0,0.4,0,0.5,0h0v-0.1h-5.1v0.1h0c0.1,0,0.2,0,0.5,0c0.2,0,0.4,0.1,0.7,0.2
						c0.2,0.1,0.3,0.3,0.3,0.5v9.6c0,1.3,0.2,2.4,0.7,3.1c0.5,0.8,1.1,1.3,2,1.6c0.3,0.1,0.6,0.2,1,0.3V58.7z"/>
				</g>
				<g>
					<path class="st0" d="M22.7,57l0.1-0.1c-0.3-0.5-0.5-1.2-0.5-1.8L22,55c0,0.5,0.2,1.1,0.4,1.6C22.5,56.8,22.6,56.9,22.7,57z"/>
					<path class="st0" d="M32.6,53.2c-0.3-0.6-0.8-1.1-1.7-1.6c-0.8-0.5-2-1.1-3.5-1.7c-1-0.4-1.8-0.8-2.4-1.2
						c-0.5-0.4-0.9-0.8-1.1-1.2c-0.2-0.4-0.3-0.8-0.3-1.2c0-0.5,0.1-0.9,0.4-1.3c0.2-0.4,0.6-0.7,1.1-1c0.5-0.3,1.1-0.4,1.9-0.4
						c0.8,0,1.5,0.2,2.1,0.5c0.6,0.4,1.1,0.9,1.5,1.5c0.4,0.6,0.7,1.4,0.9,2.2h0.1v-4.1h-0.1c0,0.2,0,0.4-0.1,0.7
						c-0.1,0.2-0.3,0.4-0.5,0.4c-0.1,0-0.3-0.1-0.6-0.3c-0.2-0.1-0.5-0.3-0.8-0.5c-0.3-0.2-0.7-0.3-1-0.4c-0.4-0.1-0.8-0.2-1.3-0.2
						c-0.9,0-1.7,0.2-2.5,0.5c-0.7,0.3-1.3,0.8-1.7,1.4c-0.4,0.6-0.6,1.3-0.6,2c0,1.1,0.3,2,1,2.7c0.7,0.7,1.8,1.3,3.3,1.9
						c0.3,0.1,0.6,0.3,0.9,0.4c0.8,0.3,1.4,0.6,2,0.9c0.6,0.3,1.1,0.7,1.4,1.1c0.3,0.4,0.5,0.9,0.5,1.6c0,1.1-0.4,1.9-1.1,2.5
						c-0.2,0.2-0.5,0.3-0.8,0.5l-0.2,0.3c0.4-0.1,0.8-0.2,1.1-0.4c0.8-0.4,1.5-0.9,2-1.6c0.5-0.7,0.7-1.4,0.7-2.3
						C33.1,54.4,32.9,53.8,32.6,53.2z"/>
				</g>
				<g>
					<path class="st0" d="M46.9,59.2c-0.2,0-0.4-0.1-0.7-0.2c-0.2-0.1-0.3-0.3-0.3-0.5v-6.4l-1.1-1.9l-3.1-5.5c-0.1-0.2,0-0.3,0-0.4
						c0.1-0.1,0.2-0.2,0.4-0.2c0.2-0.1,0.3-0.1,0.5-0.1c0.2,0,0.4-0.1,0.6-0.1v-0.1h-0.1v0h-5.6v0.1c0.4,0.1,0.7,0.2,1,0.3
						c0.3,0.1,0.5,0.3,0.7,0.5l4.6,8v5.7c0,0.2-0.1,0.4-0.3,0.5c-0.2,0.1-0.4,0.2-0.7,0.2c-0.2,0-0.4,0.1-0.5,0.1h0v0.1h5.1v-0.1h0
						C47.3,59.2,47.1,59.2,46.9,59.2z"/>
					<path class="st0" d="M48.4,43.8v0.1h0.2c0.3,0,0.6,0.1,0.9,0.2c0.3,0.1,0.3,0.3,0.2,0.6l-1.6,2.9l0.1,0.1l1.6-3
						c0.2-0.2,0.4-0.4,0.6-0.5c0.3-0.1,0.5-0.2,0.7-0.2c0.2,0,0.4-0.1,0.4-0.1h0v-0.1H48.4z"/>
				</g>
			</g>
			<g>
				<path class="st0" d="M72.7,62c0,0.2,0.1,0.4,0.1,0.6c0.1,0.3,0.2,0.6,0.2,0.9c0,0.1,0,0.3,0,0.4c-0.1,0.2-0.3,0.3-0.6,0.2
					c-0.3-0.1-0.5-0.2-0.7-0.4c-0.4-0.3-0.7-0.8-1.1-1.1c-0.3-0.3-0.7-0.5-1.1-0.6c-0.5-0.1-1.1-0.1-1.6,0.1
					c-0.4,0.2-0.8,0.5-1.2,0.8c-0.1,0.1-0.1,0.2,0.1,0.2c0.2,0.1,0.5,0.1,0.7,0.2c0.2,0.1,0.3,0.2,0.4,0.4c0.2,0.3,0,0.7-0.2,0.8
					c-0.2,0.2-0.5,0.3-0.8,0.2c-0.4,0-0.7-0.1-0.9-0.5c-0.1-0.2-0.2-0.5-0.1-0.7c0-0.2,0-0.2-0.2-0.3c-0.3-0.1-0.6-0.1-1-0.2
					c-0.1,0-0.1,0-0.1,0c-0.6,0.5-1.4,0.9-2.1,1.3c-0.6,0.2-1.2,0.5-1.8,0.6c-0.6,0.1-1.3,0.3-1.9,0.2c-0.3,0-0.6-0.1-0.9-0.2
					c-0.4-0.2-0.7-0.5-0.8-1c0-0.2,0-0.4,0-0.6c0-0.1,0-0.1-0.1-0.1c-0.2,0-0.5,0.1-0.7,0.1c-0.2,0-0.3,0-0.4-0.1
					c-0.1,0-0.1-0.1-0.1-0.1c0-0.1,0-0.1,0.1-0.2c0.2-0.1,0.3-0.1,0.5-0.1c0.2,0,0.3,0,0.5,0.1c0.2,0,0.4,0,0.5-0.2
					c0.2-0.3,0.4-0.6,0.7-0.8c0.4-0.4,0.9-0.7,1.4-1c0.3-0.1,0.5-0.3,0.8-0.3c0.1,0,0.2,0,0.3,0.2c0.1,0.1,0,0.2-0.1,0.3
					c-0.5,0.6-1.1,1-1.8,1.4c-0.3,0.2-0.6,0.3-0.9,0.4c-0.1,0-0.1,0.1-0.2,0.1c-0.1,0.2-0.1,0.5-0.1,0.7c0.1,0.4,0.4,0.5,0.8,0.6
					c0.6,0.2,1.1,0.1,1.7,0.1c0.9-0.1,1.8-0.4,2.7-0.8c0.5-0.2,1-0.5,1.4-0.8c0,0,0.1,0,0.1-0.1c0,0-0.1,0-0.1,0
					c-0.3-0.1-0.5-0.1-0.8-0.2c-0.3-0.1-0.7-0.2-1-0.4c-0.1-0.1-0.3-0.2-0.3-0.3c-0.1-0.2-0.1-0.5,0.1-0.7c0.3-0.2,0.6-0.4,0.9-0.6
					c0.6-0.3,1.3-0.5,2-0.5c0.2,0,0.5,0,0.7,0.1c0.3,0.1,0.5,0.4,0.4,0.7c0,0.3-0.1,0.5-0.3,0.8c-0.2,0.2-0.3,0.5-0.5,0.7
					c-0.1,0.1-0.1,0.1,0,0.1c0.1,0,0.2,0,0.3,0.1c0.2,0,0.4,0.1,0.6,0.1c0.1,0,0.1,0,0.1-0.1c0.5-0.7,1.2-1.1,2.1-1.3
					c0.6-0.1,1.2-0.1,1.7,0.1c0.3,0.1,0.6,0.4,0.9,0.6c0.3,0.3,0.5,0.6,0.8,0.9c0.2,0.2,0.4,0.3,0.6,0.4c0.1,0,0.1,0.1,0.2,0
					c0.1,0,0-0.1,0-0.2c0-0.3-0.1-0.5-0.2-0.8c-0.1-0.5-0.2-1-0.3-1.4c0-0.2-0.1-0.3-0.1-0.5c0-0.2-0.1-0.3-0.1-0.5
					c0-0.1,0-0.1,0.1-0.2c0.1-0.1,0.3-0.1,0.4,0c0,0.1,0.1,0.2,0.1,0.3c0,0.5,0.2,0.9,0.6,1.2c0.3,0.3,0.6,0.5,1,0.7
					c0.3,0.1,0.6,0.3,1,0.3c0.2,0,0.4,0.1,0.7,0.1c0,0,0.1,0,0.1,0c0,0,0-0.1,0-0.1c-0.1-0.2-0.2-0.3-0.2-0.6c0-0.2,0.1-0.4,0.2-0.6
					c0.2-0.2,0.5-0.3,0.7-0.4c0.4-0.2,0.9-0.3,1.4-0.4c0.2,0,0.3,0,0.5,0c0.2,0,0.3,0.2,0.4,0.4c0.2,0.4,0.1,0.7-0.1,1.1
					c-0.1,0.2-0.3,0.4-0.4,0.5c-0.3,0.3-0.6,0.4-1,0.5c0,0-0.1,0-0.1,0c0,0,0,0.1,0.1,0.1c0.2,0.2,0.3,0.3,0.5,0.5
					c0.1,0.1,0.1,0.1,0.2,0c0.4-0.3,0.7-0.6,1.1-0.9c0.5-0.4,1.1-0.8,1.6-1.2c0.4-0.2,0.7-0.5,1.1-0.6c0.2-0.1,0.3-0.1,0.5-0.1
					c0.3,0.1,0.4,0.3,0.4,0.5c0,0.2,0,0.5,0,0.7c-0.1,0.5-0.2,0.9-0.2,1.4c0,0.1,0,0.3,0,0.4c0.1,0.2,0.2,0.3,0.4,0.3
					c0.3,0,0.6-0.1,0.9-0.2c0.4-0.1,0.7-0.3,1.1-0.5c0.5-0.3,1-0.6,1.6-0.7c0.6-0.1,1.1,0,1.6,0.2c0.4,0.2,0.7,0.5,1,0.7
					c0.3,0.2,0.6,0.4,1,0.6c0.3,0.2,0.6,0.3,0.9,0.5c0.3,0.2,0.7,0.2,1.1,0.4c0.3,0.1,0.6,0.2,1,0.2c0.3,0.1,0.5,0.1,0.8,0.2
					c0.1,0,0.2,0,0.3,0c0,0,0.1-0.1,0.1,0c0,0.1,0,0.1-0.1,0.1c-0.2,0.2-0.5,0.2-0.8,0.3c-0.4,0-0.9,0-1.3-0.1
					c-0.3-0.1-0.7-0.2-1-0.3c-0.4-0.1-0.7-0.3-1-0.5c-0.4-0.2-0.7-0.4-1.1-0.7c-0.2-0.2-0.5-0.4-0.7-0.5c-0.3-0.2-0.5-0.4-0.8-0.5
					c-0.4-0.1-0.9-0.1-1.3,0.1c-0.5,0.2-1,0.5-1.5,0.7c-0.5,0.3-1.1,0.4-1.6,0.5c-0.5,0-0.8-0.1-1-0.6C82,64.1,82,63.8,82,63.6
					c0-0.5,0.1-1,0.2-1.5c0-0.2,0.1-0.4,0.1-0.6c0-0.1-0.1-0.2-0.2-0.1c-0.3,0.1-0.5,0.2-0.8,0.4c-0.6,0.3-1.1,0.8-1.7,1.2
					c-0.5,0.4-0.9,0.8-1.4,1.1c-0.1,0.1-0.1,0.1,0,0.2c0.5,0.6,1,1.1,1.3,1.9c0.3,0.7,0.3,1.5,0,2.2c-0.3,0.6-0.7,1.1-1.2,1.5
					c-0.5,0.4-1,0.7-1.5,1c-0.5,0.2-1,0.4-1.4,0.5c-0.5,0.1-1,0.3-1.6,0.3c-0.4,0-0.7,0-1.1,0c-0.6-0.1-0.9-0.7-0.8-1.3
					c0.1-0.4,0.3-0.6,0.5-0.9c0.3-0.5,0.7-0.9,1-1.3c0.2-0.3,0.4-0.5,0.6-0.7c0.3-0.4,0.7-0.7,1-1.1c0.4-0.4,0.7-0.7,1.1-1.1
					c0.4-0.3,0.7-0.6,1.1-1c0.1-0.1,0.1-0.1,0-0.2c-0.3-0.3-0.5-0.5-0.8-0.8c-0.1-0.1-0.1-0.1-0.2-0.1c-0.3,0-0.7,0-1-0.1
					c-0.3-0.1-0.6-0.1-1-0.3c-0.4-0.1-0.7-0.3-1-0.5C73,62.3,72.9,62.1,72.7,62z M79,68.2c0.3-0.6,0.3-1.2,0-1.7
					c-0.3-0.7-0.8-1.3-1.3-1.8c-0.1-0.1-0.1,0-0.2,0c-0.4,0.3-0.8,0.7-1.1,1c-0.3,0.3-0.6,0.6-0.9,1c-0.3,0.3-0.5,0.6-0.8,0.8
					c-0.2,0.3-0.5,0.5-0.7,0.8c-0.2,0.3-0.5,0.6-0.7,0.8c-0.1,0.2-0.3,0.4-0.4,0.5c-0.2,0.3-0.4,0.5-0.5,0.8
					c-0.1,0.3-0.1,0.5,0.3,0.7c0.3,0.1,0.6,0.1,0.9,0c0.8-0.1,1.6-0.3,2.3-0.6c0.8-0.3,1.5-0.7,2.1-1.3C78.5,69,78.8,68.6,79,68.2z
					 M65.5,61.5c0,0,0.1-0.1,0.1-0.1c0.1-0.3,0-0.4-0.3-0.5c-0.1,0-0.2,0-0.4,0c-0.4,0-0.7,0.1-1,0.2c-0.5,0.1-0.9,0.3-1.3,0.6
					c-0.1,0-0.2,0.1-0.2,0.2c-0.1,0.1-0.1,0.2,0,0.2c0.3,0.2,0.6,0.3,0.9,0.4c0.4,0.1,0.7,0.2,1.1,0.2c0.1,0,0.2,0,0.3-0.1
					c0.1-0.1,0.2-0.2,0.3-0.4C65.2,62,65.4,61.8,65.5,61.5z M78.3,61.7c0-0.1,0.1-0.1,0.1-0.2c0.1-0.2,0-0.3-0.2-0.3
					c-0.1,0-0.2,0-0.2,0c-0.2,0-0.4,0.1-0.7,0.2c-0.3,0.1-0.6,0.2-0.9,0.4c-0.3,0.1-0.3,0.3-0.2,0.5c0.1,0.1,0.2,0.2,0.2,0.3
					c0.1,0.2,0.3,0.2,0.5,0.2C77.5,62.6,78,62.3,78.3,61.7z M67.2,63.8c-0.2-0.1-0.5-0.2-0.7-0.2c-0.1,0-0.1,0-0.1,0.1
					c-0.1,0.2,0,0.5,0.1,0.6c0.3,0.2,0.7,0.2,0.9,0c0.1-0.1,0.1-0.2,0-0.3C67.4,63.9,67.3,63.8,67.2,63.8z M57.9,62.8
					c0.1,0,0.1,0,0.1,0c0.8-0.3,1.5-0.9,2.1-1.5c0,0,0,0,0-0.1c0,0-0.1,0-0.1,0c-0.1,0-0.2,0.1-0.3,0.1c-0.5,0.2-0.9,0.6-1.3,0.9
					C58.3,62.5,58.1,62.6,57.9,62.8z"/>
				<path class="st0" d="M54.1,59.8c-0.2,0.4-0.3,0.7-0.5,1c-0.1,0.1-0.1,0.2-0.1,0.4c0.2,0.6,0.3,1.1,0.5,1.7
					c0.3,0.9,0.6,1.8,0.8,2.7c0.1,0.4,0.2,0.9,0.2,1.3c0,0.3,0.1,0.7,0.1,1c0,0,0,0.1-0.1,0.1c0,0,0-0.1,0-0.1
					c-0.1-0.4-0.2-0.8-0.3-1.1c-0.1-0.4-0.2-0.8-0.3-1.2c-0.2-0.7-0.4-1.3-0.6-1.9c-0.2-0.5-0.3-1-0.5-1.5c0-0.1-0.1-0.3-0.2-0.4
					c0-0.1-0.1-0.1-0.2,0c-0.3,0.4-0.5,0.8-0.8,1.1c-0.3,0.4-0.7,0.7-1,1c-0.5,0.4-1,0.8-1.6,1.1c-0.4,0.3-0.9,0.5-1.3,0.7
					c-0.4,0.2-0.8,0.4-1.3,0.5c-0.6,0.2-1.2,0.3-1.9,0.3c-0.5,0-0.8-0.2-0.9-0.6c-0.1-0.2-0.1-0.4,0-0.6c0.1-0.3,0.2-0.5,0.4-0.7
					c0.3-0.3,0.6-0.6,1-0.9c0.6-0.5,1.3-0.9,2-1.3c0.5-0.3,1.1-0.5,1.6-0.8c0.4-0.2,0.8-0.3,1.2-0.4c0.3-0.1,0.6-0.2,0.9-0.2
					c0.5-0.1,1.1-0.1,1.6,0.1c0.1,0,0.2,0,0.1-0.1c0-0.3-0.1-0.5-0.1-0.8c-0.1-0.4-0.1-0.9-0.1-1.3c0-0.5,0-1,0.1-1.5
					c0-0.2,0.1-0.5,0.1-0.7c0.1-0.4,0.2-0.7,0.3-1.1c0.2-0.5,0.3-0.9,0.6-1.3c0.1-0.2,0.3-0.4,0.5-0.6c0.1-0.1,0.3-0.2,0.5-0.1
					c0.1,0.1,0.2,0.2,0.2,0.3c0.1,0.3,0.1,0.5,0.1,0.8c0,0.4,0,0.7-0.1,1.1c0,0.3-0.1,0.6-0.1,0.9c-0.1,0.4-0.2,0.8-0.3,1.2
					c-0.1,0.2-0.1,0.5-0.2,0.7C54.3,59.1,54.2,59.5,54.1,59.8z M44.6,65.4c-0.2,0.3,0,0.7,0.4,0.7c0.4,0,0.7,0,1-0.1
					c0.9-0.2,1.6-0.5,2.4-0.9c0.4-0.2,0.8-0.4,1.2-0.7c0.5-0.3,0.9-0.6,1.3-0.9c0.4-0.3,0.7-0.6,1-1c0.3-0.3,0.5-0.6,0.7-0.9
					c0.1-0.2,0.1-0.3-0.1-0.3c-0.3,0-0.6,0-0.9,0c-0.5,0.1-1,0.2-1.5,0.4c-0.7,0.2-1.3,0.5-2,0.9c-1.1,0.6-2.2,1.2-3.1,2.2
					C44.8,65,44.7,65.2,44.6,65.4z M53.3,60.5c0.1-0.2,0.2-0.4,0.2-0.5c0.2-0.5,0.4-1,0.6-1.5c0.1-0.3,0.2-0.7,0.3-1
					c0.1-0.2,0.1-0.5,0.2-0.7c0.1-0.3,0.1-0.6,0.2-0.9c0.1-0.4,0.1-0.7,0.1-1.1c0-0.2,0-0.5-0.1-0.7c0-0.1-0.1-0.1-0.2,0
					c-0.1,0.1-0.2,0.2-0.3,0.3c-0.3,0.5-0.5,1-0.7,1.5c-0.1,0.2-0.1,0.3-0.1,0.5c-0.1,0.3-0.1,0.5-0.2,0.8c-0.1,0.4-0.1,0.8-0.1,1.2
					c0,0.5,0,1.1,0,1.6C53.3,60.2,53.3,60.3,53.3,60.5z"/>
				<path class="st0" d="M70.6,57.7c-0.1,0-0.1-0.1-0.1-0.2c0-0.1,0.1-0.1,0.2-0.1c0.2,0,0.5-0.1,0.7-0.1c0.3-0.1,0.7-0.1,1-0.2
					c0,0,0.1,0,0.1,0c0,0,0,0.1-0.1,0.1c-0.3,0.1-0.6,0.2-0.9,0.3c-0.1,0.1-0.3,0.1-0.4,0.2c0,0,0,0,0,0
					C71,57.6,70.8,57.7,70.6,57.7z"/>
			</g>
		</g>
	</g>
</g>
<g id="Layer_2" class="st107">
</g>
</svg>
