<svg xmlns="http://www.w3.org/2000/svg" xmlns:xlink="http://www.w3.org/1999/xlink" viewBox="0 0 110.6 110.6" style="enable-background:new 0 0 110.6 110.6" xml:space="preserve"><style>.st0{fill:#fff}</style><g id="Layer_1"><image style="overflow:visible" width="1152" height="1152" xlink:href="AC7DDCB660BECABA.png" transform="translate(-36 -1136)"/><circle cx="55.3" cy="55.3" r="52.7" style="fill:#c5baaf"/><path class="st0" d="M79 51.2c.7-.1 1.2 0 1.7.2s.8.6.8 1.4h.1v-3.6h-.1c0 .6-.2 1.1-.5 1.3-.3.3-.6.4-1.1.5-.4.1-.9.1-1.4.1H77v.1h2zM77 43.9h3.1c.9 0 1.6.1 2.1.2.6.1 1 .4 1.3.7.3.4.5.9.5 1.7h.1v-2.7H77v.1zM85.1 55.9c-.4 1.2-1 2-1.9 2.5-.8.5-1.7.8-2.8.8H77v.1h7.1l1.1-3.4h-.1zM67.5 43.7v.1h.5c.2 0 .4.1.7.2.2.1.3.3.3.5v9.7c0 1.6-.4 2.8-1.3 3.7-.1.2-.3.3-.5.4v.1c.5-.3.9-.8 1.2-1.3.4-.8.7-1.7.7-2.9v-9.7c0-.2.1-.4.3-.5.2-.1.4-.2.7-.2h.5v-.1h-3.1zM62 58.7c-.5-.4-.9-1-1.1-1.7-.2-.8-.4-1.7-.4-2.8v-9.6c0-.2.1-.4.3-.5.2-.1.4-.2.6-.2h.5v-.1h-5.1v.1h.5c.2 0 .4.1.7.2.2.1.3.3.3.5v9.6c0 1.3.2 2.4.7 3.1.5.8 1.1 1.3 2 1.6.3.1.6.2 1 .3v-.5zM22.7 57l.1-.1c-.3-.5-.5-1.2-.5-1.8L22 55c0 .5.2 1.1.4 1.6.1.2.2.3.3.4zM32.6 53.2c-.3-.6-.8-1.1-1.7-1.6-.8-.5-2-1.1-3.5-1.7-1-.4-1.8-.8-2.4-1.2-.5-.4-.9-.8-1.1-1.2-.2-.4-.3-.8-.3-1.2 0-.5.1-.9.4-1.3.2-.4.6-.7 1.1-1 .5-.3 1.1-.4 1.9-.4.8 0 1.5.2 2.1.5.6.4 1.1.9 1.5 1.5.4.6.7 1.4.9 2.2h.1v-4.1h-.1c0 .2 0 .4-.1.7-.1.2-.3.4-.5.4-.1 0-.3-.1-.6-.3-.2-.1-.5-.3-.8-.5-.3-.2-.7-.3-1-.4-.4-.1-.8-.2-1.3-.2-.9 0-1.7.2-2.5.5-.7.3-1.3.8-1.7 1.4-.4.6-.6 1.3-.6 2 0 1.1.3 2 1 2.7.7.7 1.8 1.3 3.3 1.9.3.1.6.3.9.4.8.3 1.4.6 2 .9.6.3 1.1.7 1.4 1.1.3.4.5.9.5 1.6 0 1.1-.4 1.9-1.1 2.5-.2.2-.5.3-.8.5l-.2.3c.4-.1.8-.2 1.1-.4.8-.4 1.5-.9 2-1.6.5-.7.7-1.4.7-2.3-.1-.5-.3-1.1-.6-1.7zM46.9 59.2c-.2 0-.4-.1-.7-.2-.2-.1-.3-.3-.3-.5v-6.4l-1.1-1.9-3.1-5.5c-.1-.2 0-.3 0-.4.1-.1.2-.2.4-.2.2-.1.3-.1.5-.1s.4-.1.6-.1v-.1H37.5v.1c.4.1.7.2 1 .3.3.1.5.3.7.5l4.6 8v5.7c0 .2-.1.4-.3.5-.2.1-.4.2-.7.2-.2 0-.4.1-.5.1v.1h5.1v-.1h-.5zM48.4 43.8v.1h.2c.3 0 .6.1.9.2.3.1.3.3.2.6l-1.6 2.9.1.1 1.6-3c.2-.2.4-.4.6-.5.3-.1.5-.2.7-.2.2 0 .4-.1.4-.1v-.1h-3.1zM72.7 62c0 .2.1.4.1.6.1.3.2.6.2.9v.4c-.1.2-.3.3-.6.2-.3-.1-.5-.2-.7-.4-.4-.3-.7-.8-1.1-1.1-.3-.3-.7-.5-1.1-.6-.5-.1-1.1-.1-1.6.1-.4.2-.8.5-1.2.8-.1.1-.1.2.1.2.2.1.5.1.7.2.2.1.3.2.4.4.2.3 0 .7-.2.8-.2.2-.5.3-.8.2-.4 0-.7-.1-.9-.5-.1-.2-.2-.5-.1-.7 0-.2 0-.2-.2-.3-.3-.1-.6-.1-1-.2h-.1c-.6.5-1.4.9-2.1 1.3-.6.2-1.2.5-1.8.6-.6.1-1.3.3-1.9.2-.3 0-.6-.1-.9-.2-.4-.2-.7-.5-.8-1v-.6c0-.1 0-.1-.1-.1-.2 0-.5.1-.7.1-.2 0-.3 0-.4-.1-.1 0-.1-.1-.1-.1 0-.1 0-.1.1-.2.2-.1.3-.1.5-.1s.3 0 .5.1c.2 0 .4 0 .5-.2.2-.3.4-.6.7-.8.4-.4.9-.7 1.4-1 .3-.1.5-.3.8-.3.1 0 .2 0 .3.2.1.1 0 .2-.1.3-.5.6-1.1 1-1.8 1.4-.3.2-.6.3-.9.4-.1 0-.1.1-.2.1-.1.2-.1.5-.1.7.1.4.4.5.8.6.6.2 1.1.1 1.7.1.9-.1 1.8-.4 2.7-.8.5-.2 1-.5 1.4-.8 0 0 .1 0 .1-.1h-.1c-.3-.1-.5-.1-.8-.2-.3-.1-.7-.2-1-.4-.1-.1-.3-.2-.3-.3-.1-.2-.1-.5.1-.7l.9-.6c.6-.3 1.3-.5 2-.5.2 0 .5 0 .7.1.3.1.5.4.4.7 0 .3-.1.5-.3.8-.2.2-.3.5-.5.7-.1.1-.1.1 0 .1s.2 0 .3.1c.2 0 .4.1.6.1.1 0 .1 0 .1-.1.5-.7 1.2-1.1 2.1-1.3.6-.1 1.2-.1 1.7.1.3.1.6.4.9.6.3.3.5.6.8.9.2.2.4.3.6.4.1 0 .1.1.2 0 .1 0 0-.1 0-.2 0-.3-.1-.5-.2-.8-.1-.5-.2-1-.3-1.4 0-.2-.1-.3-.1-.5s-.1-.3-.1-.5c0-.1 0-.1.1-.2s.3-.1.4 0c0 .1.1.2.1.3 0 .5.2.9.6 1.2.3.3.6.5 1 .7.3.1.6.3 1 .3.2 0 .4.1.7.1h.1v-.1c-.1-.2-.2-.3-.2-.6 0-.2.1-.4.2-.6.2-.2.5-.3.7-.4.4-.2.9-.3 1.4-.4h.5c.2 0 .3.2.4.4.2.4.1.7-.1 1.1-.1.2-.3.4-.4.5-.3.3-.6.4-1 .5h-.1s0 .1.1.1l.5.5c.1.1.1.1.2 0 .4-.3.7-.6 1.1-.9.5-.4 1.1-.8 1.6-1.2.4-.2.7-.5 1.1-.6.2-.1.3-.1.5-.1.3.1.4.3.4.5v.7c-.1.5-.2.9-.2 1.4v.4c.1.2.2.3.4.3.3 0 .6-.1.9-.2.4-.1.7-.3 1.1-.5.5-.3 1-.6 1.6-.7.6-.1 1.1 0 1.6.2.4.2.7.5 1 .7.3.2.6.4 1 .6.3.2.6.3.9.5.3.2.7.2 1.1.4.3.1.6.2 1 .2.3.1.5.1.8.2h.3s.1-.1.1 0 0 .1-.1.1c-.2.2-.5.2-.8.3-.4 0-.9 0-1.3-.1-.3-.1-.7-.2-1-.3-.4-.1-.7-.3-1-.5-.4-.2-.7-.4-1.1-.7-.2-.2-.5-.4-.7-.5-.3-.2-.5-.4-.8-.5-.4-.1-.9-.1-1.3.1-.5.2-1 .5-1.5.7-.5.3-1.1.4-1.6.5-.5 0-.8-.1-1-.6-.2.5-.2.2-.2 0 0-.5.1-1 .2-1.5 0-.2.1-.4.1-.6 0-.1-.1-.2-.2-.1-.3.1-.5.2-.8.4-.6.3-1.1.8-1.7 1.2-.5.4-.9.8-1.4 1.1-.1.1-.1.1 0 .2.5.6 1 1.1 1.3 1.9.3.7.3 1.5 0 2.2-.3.6-.7 1.1-1.2 1.5-.5.4-1 .7-1.5 1-.5.2-1 .4-1.4.5-.5.1-1 .3-1.6.3h-1.1c-.6-.1-.9-.7-.8-1.3.1-.4.3-.6.5-.9.3-.5.7-.9 1-1.3.2-.3.4-.5.6-.7.3-.4.7-.7 1-1.1l1.1-1.1c.4-.3.7-.6 1.1-1 .1-.1.1-.1 0-.2l-.8-.8c-.1-.1-.1-.1-.2-.1-.3 0-.7 0-1-.1-.3-.1-.6-.1-1-.3-.4-.1-.7-.3-1-.5-.2 0-.3-.2-.5-.3zm6.3 6.2c.3-.6.3-1.2 0-1.7-.3-.7-.8-1.3-1.3-1.8-.1-.1-.1 0-.2 0-.4.3-.8.7-1.1 1-.3.3-.6.6-.9 1-.3.3-.5.6-.8.8-.2.3-.5.5-.7.8-.2.3-.5.6-.7.8-.1.2-.3.4-.4.5-.2.3-.4.5-.5.8-.1.3-.1.5.3.7.3.1.6.1.9 0 .8-.1 1.6-.3 2.3-.6.8-.3 1.5-.7 2.1-1.3.5-.2.8-.6 1-1zm-13.5-6.7.1-.1c.1-.3 0-.4-.3-.5h-.4c-.4 0-.7.1-1 .2-.5.1-.9.3-1.3.6-.1 0-.2.1-.2.2-.1.1-.1.2 0 .2.3.2.6.3.9.4.4.1.7.2 1.1.2.1 0 .2 0 .3-.1.1-.1.2-.2.3-.4.2-.2.4-.4.5-.7zm12.8.2c0-.1.1-.1.1-.2.1-.2 0-.3-.2-.3H78c-.2 0-.4.1-.7.2-.3.1-.6.2-.9.4-.3.1-.3.3-.2.5.1.1.2.2.2.3.1.2.3.2.5.2.6-.2 1.1-.5 1.4-1.1zm-11.1 2.1c-.2-.1-.5-.2-.7-.2-.1 0-.1 0-.1.1-.1.2 0 .5.1.6.3.2.7.2.9 0 .1-.1.1-.2 0-.3 0-.1-.1-.2-.2-.2zm-9.3-1h.1c.8-.3 1.5-.9 2.1-1.5v-.1H60c-.1 0-.2.1-.3.1-.5.2-.9.6-1.3.9-.1.3-.3.4-.5.6zM54.1 59.8c-.2.4-.3.7-.5 1-.1.1-.1.2-.1.4.2.6.3 1.1.5 1.7.3.9.6 1.8.8 2.7.1.4.2.9.2 1.3 0 .3.1.7.1 1 0 0 0 .1-.1.1v-.1c-.1-.4-.2-.8-.3-1.1l-.3-1.2c-.2-.7-.4-1.3-.6-1.9-.2-.5-.3-1-.5-1.5 0-.1-.1-.3-.2-.4 0-.1-.1-.1-.2 0-.3.4-.5.8-.8 1.1-.3.4-.7.7-1 1-.5.4-1 .8-1.6 1.1-.4.3-.9.5-1.3.7-.4.2-.8.4-1.3.5-.6.2-1.2.3-1.9.3-.5 0-.8-.2-.9-.6-.1-.2-.1-.4 0-.6.1-.3.2-.5.4-.7.3-.3.6-.6 1-.9.6-.5 1.3-.9 2-1.3.5-.3 1.1-.5 1.6-.8.4-.2.8-.3 1.2-.4.3-.1.6-.2.9-.2.5-.1 1.1-.1 1.6.1.1 0 .2 0 .1-.1 0-.3-.1-.5-.1-.8-.1-.4-.1-.9-.1-1.3 0-.5 0-1 .1-1.5 0-.2.1-.5.1-.7.1-.4.2-.7.3-1.1.2-.5.3-.9.6-1.3.1-.2.3-.4.5-.6.1-.1.3-.2.5-.1.1.1.2.2.2.3.1.3.1.5.1.8 0 .4 0 .7-.1 1.1 0 .3-.1.6-.1.9l-.3 1.2c-.1.2-.1.5-.2.7-.1.5-.2.9-.3 1.2zm-9.5 5.6c-.2.3 0 .7.4.7s.7 0 1-.1c.9-.2 1.6-.5 2.4-.9.4-.2.8-.4 1.2-.7.5-.3.9-.6 1.3-.9.4-.3.7-.6 1-1 .3-.3.5-.6.7-.9.1-.2.1-.3-.1-.3h-.9c-.5.1-1 .2-1.5.4-.7.2-1.3.5-2 .9-1.1.6-2.2 1.2-3.1 2.2-.2.2-.3.4-.4.6zm8.7-4.9c.1-.2.2-.4.2-.5l.6-1.5c.1-.3.2-.7.3-1 .1-.2.1-.5.2-.7.1-.3.1-.6.2-.9.1-.4.1-.7.1-1.1 0-.2 0-.5-.1-.7 0-.1-.1-.1-.2 0l-.3.3c-.3.5-.5 1-.7 1.5-.1.2-.1.3-.1.5-.1.3-.1.5-.2.8-.1.4-.1.8-.1 1.2V60c.1.2.1.3.1.5zM70.6 57.7c-.1 0-.1-.1-.1-.2s.1-.1.2-.1c.2 0 .5-.1.7-.1.3-.1.7-.1 1-.2h.1s0 .1-.1.1l-.9.3c-.1.1-.3.1-.4.2-.1-.1-.3 0-.5 0z"/></g></svg>